<?xml version="1.0" encoding="UTF-8" standalone="no"?>
<!-- Created with Inkscape (http://www.inkscape.org/) -->
<svg
   xmlns:dc="http://purl.org/dc/elements/1.1/"
   xmlns:cc="http://creativecommons.org/ns#"
   xmlns:rdf="http://www.w3.org/1999/02/22-rdf-syntax-ns#"
   xmlns:svg="http://www.w3.org/2000/svg"
   xmlns="http://www.w3.org/2000/svg"
   xmlns:xlink="http://www.w3.org/1999/xlink"
   xmlns:sodipodi="http://sodipodi.sourceforge.net/DTD/sodipodi-0.dtd"
   xmlns:inkscape="http://www.inkscape.org/namespaces/inkscape"
   id="svg2"
   sodipodi:version="0.32"
   inkscape:version="0.46"
   width="2000"
   height="2145.5066"
   version="1.0"
   sodipodi:docname="Schrodingers_cat.svg"
   inkscape:output_extension="org.inkscape.output.svg.inkscape">
  <metadata
     id="metadata7">
    <rdf:RDF>
      <cc:Work
         rdf:about="">
        <dc:format>image/svg+xml</dc:format>
        <dc:type
           rdf:resource="http://purl.org/dc/dcmitype/StillImage" />
      </cc:Work>
    </rdf:RDF>
  </metadata>
  <defs
     id="defs5">
    <linearGradient
       id="linearGradient7991">
      <stop
         style="stop-color:#e6e6e6;stop-opacity:1;"
         offset="0"
         id="stop7993" />
      <stop
         style="stop-color:#ffffff;stop-opacity:1;"
         offset="1"
         id="stop7995" />
    </linearGradient>
    <linearGradient
       id="linearGradient7971">
      <stop
         style="stop-color:#dcdcdc;stop-opacity:1;"
         offset="0"
         id="stop7973" />
      <stop
         style="stop-color:#f4f4f4;stop-opacity:1;"
         offset="1"
         id="stop7975" />
    </linearGradient>
    <linearGradient
       id="linearGradient7938">
      <stop
         style="stop-color:#cc0000;stop-opacity:1;"
         offset="0"
         id="stop7940" />
      <stop
         style="stop-color:#ffaa83;stop-opacity:1;"
         offset="1"
         id="stop7942" />
    </linearGradient>
    <linearGradient
       id="linearGradient7548">
      <stop
         style="stop-color:#5a3a03;stop-opacity:0.56521738;"
         offset="0"
         id="stop7550" />
      <stop
         style="stop-color:#db8c07;stop-opacity:1;"
         offset="1"
         id="stop7552" />
    </linearGradient>
    <linearGradient
       id="linearGradient7540">
      <stop
         style="stop-color:#1e1e25;stop-opacity:1;"
         offset="0"
         id="stop7542" />
      <stop
         style="stop-color:#ffffff;stop-opacity:1;"
         offset="1"
         id="stop7544" />
    </linearGradient>
    <linearGradient
       id="linearGradient4744">
      <stop
         style="stop-color:#a59675;stop-opacity:0.43478259;"
         offset="0"
         id="stop4746" />
      <stop
         id="stop4752"
         offset="0.5"
         style="stop-color:#e3e3e3;stop-opacity:0.49803922;" />
      <stop
         style="stop-color:#a59675;stop-opacity:0.70434785;"
         offset="1"
         id="stop4748" />
    </linearGradient>
    <linearGradient
       id="linearGradient4654">
      <stop
         id="stop4656"
         offset="0"
         style="stop-color:#a59675;stop-opacity:0.36521739;" />
      <stop
         id="stop4658"
         offset="1"
         style="stop-color:#50504d;stop-opacity:0.33913043;" />
    </linearGradient>
    <linearGradient
       id="linearGradient3520">
      <stop
         style="stop-color:#8d7c53;stop-opacity:0.40000001;"
         offset="0"
         id="stop3522" />
      <stop
         style="stop-color:#e2dbd1;stop-opacity:0.40000001;"
         offset="1"
         id="stop3524" />
    </linearGradient>
    <linearGradient
       id="linearGradient3226">
      <stop
         id="stop3228"
         offset="0"
         style="stop-color:#b5b6bd;stop-opacity:1;" />
      <stop
         id="stop3230"
         offset="1"
         style="stop-color:#9fa0a6;stop-opacity:1;" />
    </linearGradient>
    <inkscape:perspective
       sodipodi:type="inkscape:persp3d"
       inkscape:vp_x="0 : 526.18109 : 1"
       inkscape:vp_y="0 : 1000 : 0"
       inkscape:vp_z="744.09448 : 526.18109 : 1"
       inkscape:persp3d-origin="372.04724 : 350.78739 : 1"
       id="perspective9" />
    <linearGradient
       inkscape:collect="always"
       xlink:href="#linearGradient7540"
       id="linearGradient7546"
       x1="3322.1428"
       y1="113.80554"
       x2="3412.0657"
       y2="113.80554"
       gradientUnits="userSpaceOnUse"
       gradientTransform="matrix(1.4237655,0,0,1.4237655,-3326.3623,551.55542)" />
    <linearGradient
       inkscape:collect="always"
       xlink:href="#linearGradient7548"
       id="linearGradient7554"
       x1="3414.0483"
       y1="204.05551"
       x2="3449.6667"
       y2="169.05551"
       gradientUnits="userSpaceOnUse"
       gradientTransform="matrix(1.4237655,0,0,1.4237655,-3326.3623,551.55542)" />
    <linearGradient
       inkscape:collect="always"
       xlink:href="#linearGradient7548"
       id="linearGradient7788"
       gradientUnits="userSpaceOnUse"
       gradientTransform="matrix(0.9798202,-1.0329864,1.0329864,0.9798202,-2024.0294,5319.9002)"
       x1="3414.0483"
       y1="204.05551"
       x2="3449.6667"
       y2="169.05551" />
    <linearGradient
       inkscape:collect="always"
       xlink:href="#linearGradient7540"
       id="linearGradient7790"
       gradientUnits="userSpaceOnUse"
       gradientTransform="matrix(0.6917369,-0.3818313,0.7292713,0.3621791,676.93518,2323.4461)"
       x1="3322.1428"
       y1="113.80554"
       x2="3412.0657"
       y2="113.80554" />
    <radialGradient
       inkscape:collect="always"
       xlink:href="#linearGradient7938"
       id="radialGradient7944"
       cx="3382.75"
       cy="-79.25"
       fx="3382.75"
       fy="-79.25"
       r="18.75"
       gradientUnits="userSpaceOnUse" />
    <linearGradient
       inkscape:collect="always"
       xlink:href="#linearGradient7971"
       id="linearGradient8007"
       gradientUnits="userSpaceOnUse"
       x1="2659.0066"
       y1="533.01917"
       x2="2657.3708"
       y2="909.53925"
       gradientTransform="matrix(1.7683466,0,0,1.7683466,-3992.9266,20.285613)" />
    <linearGradient
       inkscape:collect="always"
       xlink:href="#linearGradient7991"
       id="linearGradient8021"
       gradientUnits="userSpaceOnUse"
       x1="3060.75"
       y1="866.78125"
       x2="3388.5625"
       y2="866.78125"
       gradientTransform="matrix(1.7683466,0,0,1.7683466,-3992.9266,20.285613)" />
    <linearGradient
       inkscape:collect="always"
       xlink:href="#linearGradient7991"
       id="linearGradient8039"
       x1="2772.7737"
       y1="901.04688"
       x2="2769.5745"
       y2="1201.8125"
       gradientUnits="userSpaceOnUse"
       gradientTransform="matrix(1.7683466,0,0,1.7683466,-3992.9266,20.285613)" />
    <linearGradient
       inkscape:collect="always"
       xlink:href="#linearGradient7991"
       id="linearGradient8047"
       gradientUnits="userSpaceOnUse"
       x1="3060.75"
       y1="866.78125"
       x2="3388.5625"
       y2="866.78125"
       gradientTransform="matrix(1.7683466,0,0,1.7683466,-3992.9266,-1060.0686)" />
    <linearGradient
       inkscape:collect="always"
       xlink:href="#linearGradient7991"
       id="linearGradient8049"
       gradientUnits="userSpaceOnUse"
       x1="2772.7737"
       y1="901.04688"
       x2="2769.5745"
       y2="1201.8125"
       gradientTransform="matrix(1.7683466,0,0,1.7683466,-3992.9266,-1060.0686)" />
    <linearGradient
       inkscape:collect="always"
       xlink:href="#linearGradient7971"
       id="linearGradient8051"
       gradientUnits="userSpaceOnUse"
       x1="2659.0066"
       y1="533.01917"
       x2="2657.3708"
       y2="909.53925"
       gradientTransform="matrix(1.7683466,0,0,1.7683466,-3992.9266,-1060.0686)" />
  </defs>
  <sodipodi:namedview
     inkscape:window-height="792"
     inkscape:window-width="1152"
     inkscape:pageshadow="2"
     inkscape:pageopacity="0.0"
     guidetolerance="10.0"
     gridtolerance="10.0"
     objecttolerance="10.0"
     borderopacity="1.0"
     bordercolor="#666666"
     pagecolor="#ffffff"
     id="base"
     showgrid="false"
     inkscape:zoom="0.125"
     inkscape:cx="498.26156"
     inkscape:cy="555.36287"
     inkscape:window-x="-4"
     inkscape:window-y="-4"
     inkscape:current-layer="svg2" />
  <path
     style="fill:url(#linearGradient8047);fill-opacity:1;fill-rule:evenodd;stroke:#000000;stroke-width:1.76834655;stroke-linecap:butt;stroke-linejoin:miter;stroke-miterlimit:4;stroke-dasharray:none;stroke-opacity:1"
     d="M 1998.1765,1062.3343 L 1998.1765,0.88417327 L 1420.9719,3.2879633 L 1420.4244,547.57957 L 1998.1765,1062.3343 z"
     id="path8041"
     sodipodi:nodetypes="ccccc" />
  <path
     style="opacity:1;fill:url(#linearGradient8049);fill-opacity:1;stroke:#000000;stroke-width:1.76834655;stroke-linecap:round;stroke-linejoin:bevel;stroke-miterlimit:4;stroke-dasharray:none;stroke-dashoffset:0;stroke-opacity:1"
     d="M 0.88417327,2.3209533 L 0.88417327,1064.2684 L 1999.1158,1064.2684 L 1998.1765,1062.3343 L 1420.5903,547.74536 L 1.4367816,547.74536 L 1.4367816,2.9288233 L 1420.4244,3.2603933 L 1420.9217,3.2603933 L 0.88417327,2.3209533 z"
     id="path8043"
     sodipodi:nodetypes="cccccccccc" />
  <path
     style="fill:url(#linearGradient8051);fill-opacity:1;fill-rule:evenodd;stroke:#000000;stroke-width:1.76834655;stroke-linecap:butt;stroke-linejoin:miter;stroke-miterlimit:4;stroke-dasharray:none;stroke-opacity:1"
     d="M 1420.9217,3.2603933 L 1.4367816,2.9288233 L 1.4367816,547.74536 L 1420.9217,547.74536 L 1420.9217,3.2603933 z"
     id="path8045"
     sodipodi:nodetypes="ccccc" />
  <path
     style="fill:url(#linearGradient8021);fill-opacity:1;fill-rule:evenodd;stroke:#000000;stroke-width:1.76834655;stroke-linecap:butt;stroke-linejoin:miter;stroke-miterlimit:4;stroke-dasharray:none;stroke-opacity:1"
     d="M 1998.1765,2142.6884 L 1998.1765,1081.2383 L 1420.9719,1083.6421 L 1420.4244,1627.9337 L 1998.1765,2142.6884 z"
     id="path8024"
     sodipodi:nodetypes="ccccc" />
  <path
     style="opacity:1;fill:url(#linearGradient8039);fill-opacity:1;stroke:#000000;stroke-width:1.76834655;stroke-linecap:round;stroke-linejoin:bevel;stroke-miterlimit:4;stroke-dasharray:none;stroke-dashoffset:0;stroke-opacity:1"
     d="M 0.88417327,1082.6751 L 0.88417327,2144.6224 L 1999.1158,2144.6224 L 1998.1765,2142.6884 L 1420.5903,1628.0995 L 1.4367816,1628.0995 L 1.4367816,1083.283 L 1420.4244,1083.6145 L 1420.9217,1083.6145 L 0.88417327,1082.6751 z"
     id="rect8027"
     sodipodi:nodetypes="cccccccccc" />
  <path
     style="fill:url(#linearGradient8007);fill-opacity:1;fill-rule:evenodd;stroke:#000000;stroke-width:1.76834655;stroke-linecap:butt;stroke-linejoin:miter;stroke-miterlimit:4;stroke-dasharray:none;stroke-opacity:1"
     d="M 1420.9217,1083.6145 L 1.4367816,1083.283 L 1.4367816,1628.0995 L 1420.9217,1628.0995 L 1420.9217,1083.6145 z"
     id="path8010"
     sodipodi:nodetypes="ccccc" />
  <path
     style="fill:#22b716;fill-opacity:0.63529412;fill-rule:evenodd;stroke:#000000;stroke-width:1.42376542px;stroke-linecap:butt;stroke-linejoin:miter;stroke-opacity:1"
     d="M 1361.8573,1943.4062 C 1334.6748,1940.3858 1284.3956,1945.1991 1265.2088,1933.3386 C 1244.592,1920.5942 1162.9385,1929.9613 1207.8239,1960.5211 C 1254.1146,1992.0375 1149.5885,2030.0168 1270.2426,2012.8721 C 1307.4927,2008.8452 1365.8844,2017.9061 1380.9857,2017.9061 C 1396.087,2017.9061 1444.4111,2015.8925 1436.357,1991.7303 C 1428.3031,1967.5681 1408.1678,1942.3994 1398.1004,1942.3994 C 1388.0329,1942.3994 1360.8504,1944.4129 1361.8573,1943.4062 z"
     id="path7863"
     sodipodi:nodetypes="csscsssc" />
  <g
     id="g7911"
     transform="matrix(1.4237655,0,0,1.4237655,-2986.6127,542.998)">
    <path
       id="path7859"
       d="M 3082.375,216.0625 L 3012.375,216.0625 C 3011.2858,219.53272 3010.625,223.20456 3010.625,227.03125 C 3010.625,232.60474 3011.9637,237.85963 3014.1875,242.59375 C 3016.3243,247.14277 3019.3787,251.10713 3023.0938,254.40625 C 3024.1354,254.64127 3025.1134,254.92142 3026.25,255.125 C 3028.2113,255.47632 3030.3264,255.7839 3032.5312,256.03125 C 3034.7361,256.2786 3037.0386,256.46352 3039.4375,256.59375 C 3041.8363,256.72399 3044.3315,256.78125 3046.875,256.78125 C 3049.4186,256.78125 3051.8824,256.72399 3054.2812,256.59375 C 3056.6802,256.46352 3059.014,256.2786 3061.2188,256.03125 C 3063.4237,255.7839 3065.5075,255.47633 3067.4688,255.125 C 3069.1107,254.83085 3070.5919,254.48358 3072.0312,254.125 C 3075.4756,250.98568 3078.32,247.20754 3080.375,242.96875 C 3082.7198,238.13175 3084.125,232.76433 3084.125,227.03125 C 3084.125,223.19546 3083.467,219.53859 3082.375,216.0625 z"
       style="opacity:1;fill:#23b716;fill-opacity:0.63372091;stroke:#000000;stroke-width:0.4915562;stroke-linecap:round;stroke-linejoin:bevel;stroke-miterlimit:4;stroke-dasharray:none;stroke-dashoffset:0;stroke-opacity:1" />
    <path
       id="path7615"
       d="M 3038.2188,154.53125 L 3038.2188,191.4375 C 3025.9153,194.60638 3016.1568,204.01346 3012.375,216.0625 L 3082.375,216.0625 C 3078.6371,204.16406 3069.0716,194.83037 3056.9688,191.5625 L 3056.9688,154.53125 L 3038.2188,154.53125 z"
       style="opacity:1;fill:#ffffff;fill-opacity:0.63372091;stroke:#000000;stroke-width:0.4915562;stroke-linecap:round;stroke-linejoin:bevel;stroke-miterlimit:4;stroke-dasharray:none;stroke-dashoffset:0;stroke-opacity:1" />
    <rect
       y="154.40987"
       x="3032.604"
       height="5.8942194"
       width="29.471098"
       id="rect7624"
       style="opacity:1;fill:#ffffff;fill-opacity:0.63372091;stroke:#000000;stroke-width:0.69464046;stroke-linecap:round;stroke-linejoin:bevel;stroke-miterlimit:4;stroke-dasharray:none;stroke-dashoffset:0;stroke-opacity:1" />
  </g>
  <g
     id="g4236"
     transform="matrix(1.7683466,0,0,1.7683466,-30.318656,166.22822)"
     style="fill:#b2b2ba;fill-opacity:1;stroke:#000000;stroke-width:2.82749999;stroke-miterlimit:4;stroke-dasharray:none;stroke-opacity:0.52325582999999998">
    <path
       sodipodi:nodetypes="ccccccccscccccccccccccccccccccccccccccccccccccccccccccccccc"
       id="path2220"
       d="M 189.38096,169.85714 C 202.86496,177.37426 216.40184,183.34535 231.68254,179.61904 C 268.55487,182.52895 306.05394,183.10897 342.96826,179.61904 C 359.44241,178.72407 375.93592,178.99071 392.42857,178.31746 C 425.45222,175.09347 458.00057,181.35285 490.04762,188.73015 C 593.45421,219.66432 598.82572,275.93131 651.44445,356.63492 C 655.59472,362.86795 660.66189,368.73333 666.4127,373.55555 C 678.7673,386.48194 705.18013,384.47306 705.46032,401.53968 C 705.46032,405.20131 701.89359,406.74603 698.30159,406.74603 C 694.48846,406.74603 690.3703,405.70895 687.2381,404.14285 C 678.96777,398.74306 669.31073,396.37415 660.55556,391.77777 C 649.10506,383.11665 637.87196,373.49623 631.26984,360.53968 C 606.20133,322.57332 584.58339,250.73935 538.20635,240.79365 C 530.75706,273.33182 538.22204,309.66556 553.8254,339.06349 C 556.62727,345.17195 561.47307,347.49966 566.84127,350.77777 C 571.82504,355.8052 570.91106,363.25076 572.04762,369.65079 C 578.41023,389.7084 585.18707,409.61994 581.80953,430.82539 C 574.84564,455.56951 535.72783,438.78051 556.42857,425.61904 C 565.67184,428.3146 563.75502,411.66348 562.93651,405.44444 C 560.91003,383.19432 548.02249,376.86043 528.44445,369.65079 C 514.65544,362.92289 498.41334,359.46739 488.74603,346.87301 C 477.00161,346.2743 484.99686,378.60523 487.44445,387.87301 C 489.00943,401.42156 480.79164,410.05855 471.8254,418.46031 C 454.92565,435.69576 437.3682,456.83635 410.6508,451.65079 C 405.87908,450.45786 404.90109,448.39682 400.2381,448.39682 C 394.49721,441.5026 399.21154,433.71556 405.44445,429.5238 C 413.29389,429.7388 417.80425,433.66126 425.61905,430.1746 C 432.17462,427.27319 436.52009,421.60961 441.2381,416.50793 C 445.30318,411.83343 448.29654,406.91074 449.69842,400.88888 C 441.0142,378.10364 419.77745,364.37598 410.6508,341.66666 C 398.8792,332.4231 375.85675,330.89736 359.88889,328 C 345.33297,333.05811 315.49275,318.02062 304.57143,327.3492 C 296.37137,337.54744 295.63778,352.39544 294.15873,365.09523 C 293.83076,381.71728 296.50106,399.53339 288.30159,414.55555 C 291.1958,432.78908 254.73717,441.66676 250.55556,424.96825 C 250.59885,417.73208 259.80196,417.77347 264.87302,415.85714 C 274.24666,410.02534 269.68775,395.60554 269.42857,385.92063 C 268.1813,371.87692 266.14812,357.43537 262.92064,343.61904 C 250.30815,353.76798 235.40945,369.64022 229.73016,385.26984 C 225.47287,399.10911 211.74003,407.20633 201.09524,415.85714 C 192.58811,423.03494 188.21355,431.25356 184.8254,441.23809 C 168.79974,441.86948 158.19261,442.28253 143.8254,436.68254 C 140.29743,431.03796 146.10592,423.57699 150.98413,421.06349 C 158.70781,421.05188 163.98563,421.25491 170.50794,416.50793 C 180.97435,401.6232 187.31268,383.58267 195.2381,367.04761 C 200.93074,353.08555 207.58692,339.61902 214.11111,326.04761 C 217.08672,298.49424 176.93523,295.15811 170.50794,272.03174 C 167.11026,262.7987 164.08264,252.6697 158.14286,244.69841 C 147.51286,245.62035 137.45018,251.53662 127.55556,255.7619 C 118.69063,258.75812 111.20677,252.56316 106.07937,246 C 94.812688,233.89588 89.669225,215.50033 89.809525,199.14285 C 89.151923,189.19657 94.194117,178.37353 95.666667,169.85714 C 95.666667,166.24751 92.001619,163.00647 91.111112,159.44444 C 86.8696,153.26585 83.01619,146.31139 78.095239,140.57142 C 75.577614,130.38192 117.8615,148.78364 121.69842,150.98412 C 128.63556,153.66808 135.67108,156.06837 143.17461,156.19047 C 150.70779,155.91079 158.03985,153.19185 164.6508,149.68253 C 169.37738,145.02836 174.29177,141.48231 180.26984,138.61904 C 196.03026,140.79753 191.9733,158.37615 189.38096,169.85714 z"
       style="fill:#b2b2ba;fill-opacity:1;fill-rule:evenodd;stroke:#000000;stroke-width:2.82749999;stroke-linecap:butt;stroke-linejoin:miter;stroke-miterlimit:4;stroke-dasharray:none;stroke-opacity:0.52325582999999998" />
    <path
       sodipodi:nodetypes="ccc"
       id="path3236"
       d="M 216.95881,289.63219 C 214.12473,292.70673 211.03356,297.64771 210.97646,303.43761 C 211.9337,308.95104 215.10801,313.76623 214.19772,319.54393"
       style="fill:#b2b2ba;fill-opacity:1;fill-rule:evenodd;stroke:#000000;stroke-width:2.82749999;stroke-linecap:butt;stroke-linejoin:miter;stroke-miterlimit:4;stroke-dasharray:none;stroke-opacity:0.52325582999999998" />
    <path
       sodipodi:nodetypes="ccccc"
       id="path3238"
       d="M 287.7458,308.49283 C 283.65808,321.78466 273.46437,332.78202 263.67507,342.51434 C 263.41616,342.75665 263.34758,343.12734 263.18384,343.43384 M 306.41289,325.96334 C 297.47819,327.89196 288.78118,323.63976 279.88597,325.04384"
       style="fill:#b2b2ba;fill-opacity:1;fill-rule:evenodd;stroke:#000000;stroke-width:2.82749999;stroke-linecap:round;stroke-linejoin:miter;stroke-miterlimit:4;stroke-dasharray:none;stroke-opacity:0.52325582999999998" />
    <path
       sodipodi:nodetypes="ccc"
       id="path3240"
       d="M 407.53419,314.22196 C 403.94718,320.2095 407.97322,333.35054 409.8351,339.99207 C 410.03879,340.80686 410.6078,341.53747 410.75546,341.83279"
       style="fill:#b2b2ba;fill-opacity:1;fill-rule:evenodd;stroke:#000000;stroke-width:2.82749999;stroke-linecap:butt;stroke-linejoin:miter;stroke-miterlimit:4;stroke-dasharray:none;stroke-opacity:0.52325582999999998" />
    <path
       sodipodi:nodetypes="cc"
       id="path3242"
       d="M 535.46274,274.82889 C 523.91714,303.74262 499.16804,323.96829 483.67915,350.35627"
       style="fill:#b2b2ba;fill-opacity:1;fill-rule:evenodd;stroke:#000000;stroke-width:2.82749999;stroke-linecap:butt;stroke-linejoin:miter;stroke-miterlimit:4;stroke-dasharray:none;stroke-opacity:0.52325582999999998" />
    <path
       id="path3244"
       d="M 252.86924,428.49508 C 252.06924,430.09508 253.89488,424.32713 255.63033,423.89327 C 256.84949,423.58848 258.18771,423.71411 259.31177,423.43309"
       style="fill:#b2b2ba;fill-opacity:1;fill-rule:evenodd;stroke:#000000;stroke-width:2.82749999;stroke-linecap:butt;stroke-linejoin:miter;stroke-miterlimit:4;stroke-dasharray:none;stroke-opacity:0.52325582999999998" />
    <path
       id="path3246"
       d="M 258.39141,432.6367 C 259.12408,432.45353 260.36357,428.65286 263.4534,428.03489 C 263.90464,427.94464 264.37376,428.03489 264.83394,428.03489"
       style="fill:#b2b2ba;fill-opacity:1;fill-rule:evenodd;stroke:#000000;stroke-width:2.82749999;stroke-linecap:butt;stroke-linejoin:miter;stroke-miterlimit:4;stroke-dasharray:none;stroke-opacity:0.52325582999999998" />
    <path
       id="path3248"
       d="M 398.17126,443.33591 C 400.18929,442.9323 400.01199,439.65446 400.93235,437.81374 C 401.5081,436.66223 405.18195,436.4062 406.91469,435.97302"
       style="fill:#b2b2ba;fill-opacity:1;fill-rule:evenodd;stroke:#000000;stroke-width:2.82749999;stroke-linecap:butt;stroke-linejoin:miter;stroke-miterlimit:4;stroke-dasharray:none;stroke-opacity:0.52325582999999998" />
    <path
       id="path3250"
       d="M 405.07397,449.2032 C 407.63426,448.56313 407.56451,444.34412 409.67578,442.76067 C 411.22962,441.59529 413.14127,440.39871 414.73776,439.99959 C 415.07052,439.9164 415.35134,440.30638 415.65813,440.45977"
       style="fill:#b2b2ba;fill-opacity:1;fill-rule:evenodd;stroke:#000000;stroke-width:2.82749999;stroke-linecap:butt;stroke-linejoin:miter;stroke-miterlimit:4;stroke-dasharray:none;stroke-opacity:0.52325582999999998" />
    <path
       id="path3252"
       d="M 550.83618,435.39779 C 550.98616,435.36029 552.40207,431.9001 554.97781,431.25616 C 556.32696,430.91887 557.6997,430.79598 559.11943,430.79598"
       style="fill:#b2b2ba;fill-opacity:1;fill-rule:evenodd;stroke:#000000;stroke-width:2.82749999;stroke-linecap:butt;stroke-linejoin:miter;stroke-miterlimit:4;stroke-dasharray:none;stroke-opacity:0.52325582999999998" />
    <path
       id="path3254"
       d="M 553.59727,439.30932 C 555.20557,438.90724 555.98685,435.62787 560.0398,435.62787 C 560.52487,435.62787 560.96016,435.93466 561.42034,436.08805"
       style="fill:#b2b2ba;fill-opacity:1;fill-rule:evenodd;stroke:#000000;stroke-width:2.82749999;stroke-linecap:butt;stroke-linejoin:miter;stroke-miterlimit:4;stroke-dasharray:none;stroke-opacity:0.52325582999999998" />
    <path
       id="path3256"
       d="M 145.30541,437.02477 C 147.7015,437.02477 148.21293,433.19689 149.90722,431.5026 C 151.49272,429.91709 155.13274,430.58224 157.27011,430.58224"
       style="fill:#b2b2ba;fill-opacity:1;fill-rule:evenodd;stroke:#000000;stroke-width:2.82749999;stroke-linecap:butt;stroke-linejoin:miter;stroke-miterlimit:4;stroke-dasharray:none;stroke-opacity:0.52325582999999998" />
    <path
       id="path3258"
       d="M 157.70237,440.43665 C 159.8825,440.43665 160.30241,436.91625 161.844,435.37466 C 163.47163,433.74703 165.54245,433.99412 167.82634,433.99412"
       style="fill:#b2b2ba;fill-opacity:1;fill-rule:evenodd;stroke:#000000;stroke-width:2.82749999;stroke-linecap:butt;stroke-linejoin:miter;stroke-miterlimit:4;stroke-dasharray:none;stroke-opacity:0.52325582999999998" />
    <path
       sodipodi:nodetypes="cc"
       id="path3262"
       d="M 158.16735,244.66927 C 163.5547,242.99161 168.51082,240.15853 173.35331,237.30638"
       style="fill:#b2b2ba;fill-opacity:1;fill-rule:evenodd;stroke:#000000;stroke-width:2.82749999;stroke-linecap:butt;stroke-linejoin:miter;stroke-miterlimit:4;stroke-dasharray:none;stroke-opacity:0.52325582999999998" />
    <path
       sodipodi:nodetypes="cc"
       id="path3264"
       d="M 187.92117,181.10853 C 187.72929,177.11944 187.74981,173.69934 189.30171,170.0642"
       style="fill:#b2b2ba;fill-opacity:1;fill-rule:evenodd;stroke:#000000;stroke-width:2.82749999;stroke-linecap:butt;stroke-linejoin:miter;stroke-miterlimit:4;stroke-dasharray:none;stroke-opacity:0.52325582999999998" />
  </g>
  <rect
     style="opacity:1;fill:#f1cd43;fill-opacity:1;stroke:#fffa05;stroke-width:2.84753084;stroke-linejoin:bevel;stroke-miterlimit:4;stroke-dasharray:none;stroke-dashoffset:0;stroke-opacity:1;display:inline"
     id="rect7446"
     width="109.33468"
     height="109.33468"
     x="-1887.754"
     y="398.28928"
     transform="scale(-1,1)" />
  <path
     style="fill:#f1cd43;fill-opacity:1;stroke:#fffa05;stroke-width:2.84753084;stroke-linejoin:bevel;stroke-miterlimit:4;stroke-dasharray:none;stroke-dashoffset:0;stroke-opacity:1;display:inline"
     d="M 1778.4196,398.26255 L 1732.6062,370.66983 L 1732.6062,479.17705 L 1778.4196,507.59724 L 1778.4196,398.26255 z"
     id="path7448"
     sodipodi:nodetypes="ccccc" />
  <path
     style="fill:#f1cd43;fill-opacity:1;stroke:#fffa05;stroke-width:2.84753084;stroke-linejoin:bevel;stroke-miterlimit:4;stroke-dasharray:none;stroke-dashoffset:0;stroke-opacity:1;display:inline"
     d="M 1841.8419,370.60859 L 1732.5072,370.60859 L 1778.4729,398.31597 L 1887.8074,398.31597 L 1841.8419,370.60859 z"
     id="path7450"
     sodipodi:nodetypes="ccccc" />
  <path
     style="fill:#1e1e25;fill-opacity:1;stroke:#000000;stroke-width:1.42376542;stroke-linecap:round;stroke-linejoin:bevel;stroke-miterlimit:4;stroke-dashoffset:0;stroke-opacity:1"
     d="M 1745.1622,404.12177 L 1755.2297,409.65892 L 1754.9779,484.91381 L 1745.1622,478.3699 L 1745.1622,404.12177 z"
     id="rect7483"
     sodipodi:nodetypes="ccccc" />
  <path
     style="fill:#9291a4;fill-opacity:1;fill-rule:evenodd;stroke:#000000;stroke-width:1.41343939;stroke-linecap:butt;stroke-linejoin:miter;stroke-miterlimit:4;stroke-dasharray:none;stroke-opacity:1"
     d="M 1571.394,387.2928 C 1567.9968,387.29623 1563.7993,388.29713 1562.4064,392.94338 C 1561.1671,397.07683 1563.1896,399.83252 1565.521,401.57496 C 1564.8645,400.14445 1564.67,398.43372 1565.2985,396.36932 C 1566.8981,391.11358 1572.1181,390.47112 1575.7096,390.71874 C 1578.9206,390.43943 1581.8497,391.29715 1581.8497,391.29715 L 1726.4508,418.21522 L 1751.5003,422.75347 L 1745.8943,419.37202 L 1576.1547,387.9157 C 1576.1544,387.9157 1574.0359,387.29017 1571.394,387.2928 z"
     id="path7466" />
  <path
     style="fill:#f4f4f6;fill-opacity:1;fill-rule:evenodd;stroke:#000000;stroke-width:1.42376542px;stroke-linecap:butt;stroke-linejoin:miter;stroke-opacity:1"
     d="M 1751.6292,422.79061 L 1579.295,391.31075 C 1579.295,391.31075 1567.8182,388.11179 1565.3049,396.36939 C 1562.7917,404.627 1573.5627,407.4992 1573.5627,407.4992 L 1751.6396,450.58237 L 1751.6292,422.79061 z"
     id="path7470"
     sodipodi:nodetypes="ccsccc" />
  <path
     sodipodi:type="arc"
     style="opacity:1;fill:#1b1a20;fill-opacity:1;stroke:#000000;stroke-width:1;stroke-linecap:round;stroke-linejoin:bevel;stroke-miterlimit:4;stroke-dasharray:none;stroke-dashoffset:0;stroke-opacity:1"
     id="path7474"
     sodipodi:cx="3141.8906"
     sodipodi:cy="-113.65304"
     sodipodi:rx="3.1204045"
     sodipodi:ry="3.1204045"
     d="M 3145.011,-113.65304 A 3.1204045,3.1204045 0 1 1 3138.7702,-113.65304 A 3.1204045,3.1204045 0 1 1 3145.011,-113.65304 z"
     transform="matrix(1.4237655,0,0,1.4237655,-2897.4801,561.52023)" />
  <path
     style="fill:url(#linearGradient7554);fill-opacity:1;fill-rule:evenodd;stroke:#000000;stroke-width:0.93843788px;stroke-linecap:butt;stroke-linejoin:miter;stroke-opacity:1"
     d="M 1635.9406,875.36287 C 1628.2384,864.38662 1452.1998,682.94583 1452.1998,682.94583 L 1432.9438,700.32488 L 1603.3604,901.55583 L 1635.9406,875.36287 z"
     id="path7535"
     sodipodi:nodetypes="ccccc" />
  <path
     style="fill:url(#linearGradient7546);fill-opacity:1;fill-rule:evenodd;stroke:#000000;stroke-width:0.93843788px;stroke-linecap:butt;stroke-linejoin:miter;stroke-opacity:1"
     d="M 1499.3774,656.41993 L 1408.8737,736.91232 L 1404.0594,770.7557 L 1439.6833,770.7557 L 1531.15,689.34865 L 1499.3774,656.41993 z"
     id="path7537"
     sodipodi:nodetypes="cccccc" />
  <path
     style="fill:none;fill-rule:evenodd;stroke:#000000;stroke-width:1.42376542px;stroke-linecap:butt;stroke-linejoin:miter;stroke-opacity:1"
     d="M 1574.4195,400.00461 L 1574.4195,809.69314 C 1568.9692,814.09706 1544.5873,832.60601 1544.5873,832.60601 L 1575.9102,811.07156 L 1546.011,834.38571 L 1577.6898,813.02923"
     id="path7523"
     sodipodi:nodetypes="cc" />
  <g
     id="g7636"
     style="fill:#b2b2ba;fill-opacity:1;stroke:#000000;stroke-width:2.82749999;stroke-miterlimit:4;stroke-dasharray:none;stroke-opacity:0.51744186999999997"
     transform="matrix(1.7683466,0,0,1.7683466,80.048276,1590.5335)">
    <path
       sodipodi:nodetypes="csssc"
       id="path7638"
       d="M 541.09192,147.3116 C 527.98951,147.81553 526.23576,149.92036 515.65306,144.88098 C 505.07035,139.84159 498.51915,133.79433 489.95219,133.79433 C 481.38524,133.79433 465.76314,129.25888 450.64499,126.7392 C 435.52683,124.2195 416.37717,122.20374 416.37717,122.20374"
       style="fill:#b2b2ba;fill-opacity:1;fill-rule:evenodd;stroke:#000000;stroke-width:2.82749999;stroke-linecap:butt;stroke-linejoin:miter;stroke-miterlimit:4;stroke-dasharray:none;stroke-opacity:0.51744186999999997" />
    <path
       id="path7640"
       d="M 276.61604,46.787005 C 264.46935,46.580311 245.23224,49.947658 239.49992,52.152391 C 232.94873,54.672083 227.90805,55.674766 219.34109,57.186581 C 210.88611,58.678636 177.92894,74.894708 156.23707,85.007106 L 156.12667,84.808388 C 156.12667,84.808388 123.36076,93.736039 113.02694,98.012098 C 102.69313,102.28816 93.772726,112.60748 91.278355,115.10185 C 88.783987,117.59622 81.658817,121.87245 73.106694,127.9302 C 64.554574,133.98796 61.343649,145.0298 58.136602,146.45514 C 54.929557,147.88048 38.542004,158.57452 37.116651,161.42523 C 35.691297,164.27594 29.628542,171.75681 29.984881,177.10188 C 30.341219,182.44695 37.124069,183.88036 41.400127,183.88037 C 45.676188,183.88037 58.857991,183.88036 67.410111,183.88037 C 75.962231,183.88037 70.966251,187.09612 75.954986,193.15387 C 80.943723,199.21163 92.986877,204.71983 97.504853,207.74861 C 101.38135,210.34735 98.601954,236.64936 103.53263,236.89392 C 116.50172,238.9556 137.67453,215.09322 149.72353,208.83053 C 154.27311,206.02496 156.85531,197.07666 156.85531,192.8006 C 156.85531,188.52454 170.73366,188.1682 169.30831,192.8006 C 167.88295,197.43299 159.69488,202.77341 150.43009,211.32554 C 141.1653,219.87765 138.76454,220.8524 134.48849,224.77212 C 130.21242,228.69185 127.81491,232.91918 126.91512,238.15248 C 125.14847,251.98023 126.07431,270.08086 137.00558,279.57414 C 140.56896,283.13753 150.07199,282.58311 155.77339,281.87044 C 161.47482,281.15776 160.76343,261.56558 160.76342,258.00219 C 160.76342,254.43882 163.97853,250.51214 167.54192,243.38538 C 171.09338,236.28246 209.22768,202.16019 217.59678,194.8761 C 228.26106,197.12992 229.72234,199.31413 239.74281,199.31413 C 249.82157,199.31413 253.60501,195.26575 257.38455,194.25787 C 261.16409,193.24999 259.13794,186.94946 258.88598,182.66599 C 258.63401,178.3825 258.90677,178.89034 264.45008,178.89034 C 269.99341,178.89034 383.86795,161.75643 403.77351,157.47295 C 423.67909,153.18947 447.50318,152.68295 451.15672,155.70657 C 454.81028,158.7302 474.07425,163.14097 479.61755,163.01497 C 485.16087,162.88899 493.9746,166.93869 497.50218,166.81269 C 501.02975,166.68671 510.60328,173.98603 518.03638,176.50572 C 525.46946,179.02541 540.39865,179.97615 543.73724,180.48009 C 547.07583,180.98402 549.78515,178.57148 550.60406,178.3825 C 552.95157,175.47413 553.70447,177.0045 555.59409,175.26925 C 557.0429,175.52122 558.30989,169.37396 558.30989,167.23221 C 556.47464,162.73622 555.1397,160.31841 552.94451,157.47295 C 550.42481,152.9375 525.72532,136.82445 512.11899,127.75356 C 498.51265,118.68267 463.73828,100.02656 454.6674,94.987168 C 445.59651,89.947784 400.26153,64.754751 388.67093,61.227181 C 377.08035,57.699611 326.17736,45.615477 316.60253,51.158801 C 307.02769,56.702124 292.40567,48.630016 281.31903,47.118201 C 279.9332,46.929225 278.35129,46.816532 276.61604,46.787005 z"
       style="fill:#b2b2ba;fill-opacity:1;fill-rule:evenodd;stroke:#000000;stroke-width:2.82749999;stroke-linecap:butt;stroke-linejoin:miter;stroke-miterlimit:4;stroke-dasharray:none;stroke-opacity:0.51744186999999997" />
    <path
       id="path7642"
       d="M 216.43955,194.58192 C 205.60486,192.3142 195.65209,197.54256 189.60482,186.70788 C 183.55755,175.87321 180.28195,173.10154 180.28195,165.54247 C 180.28195,157.98339 179.52605,154.20384 179.52605,145.13295 C 179.52605,136.06205 179.52605,130.26677 179.52605,130.26677"
       style="fill:#b2b2ba;fill-opacity:1;fill-rule:evenodd;stroke:#000000;stroke-width:2.82749999;stroke-linecap:butt;stroke-linejoin:miter;stroke-miterlimit:4;stroke-dasharray:none;stroke-opacity:0.51744186999999997" />
    <path
       sodipodi:nodetypes="cssc"
       id="path7644"
       d="M 114.1948,129.78593 C 122.30228,138.44922 157.21132,155.79536 159.49798,157.96941 C 162.95964,161.26059 168.79552,173.55811 165.94481,178.19051 C 163.09411,182.82291 156.93461,191.72089 156.93461,191.72089"
       style="fill:#b2b2ba;fill-opacity:1;fill-rule:evenodd;stroke:#000000;stroke-width:2.82749999;stroke-linecap:butt;stroke-linejoin:miter;stroke-miterlimit:4;stroke-dasharray:none;stroke-opacity:0.51744186999999997" />
    <path
       sodipodi:nodetypes="csssccsc"
       id="path7646"
       d="M 200.18752,93.479249 C 218.83325,94.487126 228.91203,92.471372 228.91203,101.54226 C 228.91203,110.61316 232.94354,138.32978 229.41596,142.36128 C 225.88839,146.39279 216.8175,158.99126 220.84901,159.99914 C 224.88051,161.00701 239.48686,161.51095 245.03806,166.55034 C 247.2267,168.87314 249.43317,169.43457 251.98787,171.05326 C 253.76956,172.12227 258.7583,173.90397 258.7583,176.75468 C 258.7583,179.60539 259.11463,182.45609 259.11463,182.45609"
       style="fill:#b2b2ba;fill-opacity:1;fill-rule:evenodd;stroke:#000000;stroke-width:2.82749999;stroke-linecap:butt;stroke-linejoin:miter;stroke-miterlimit:4;stroke-dasharray:none;stroke-opacity:0.51744186999999997" />
  </g>
  <path
     style="opacity:1;fill:#23b716;fill-opacity:0.63372091;stroke:#000000;stroke-width:0.69986075;stroke-linecap:round;stroke-linejoin:bevel;stroke-miterlimit:4;stroke-dasharray:none;stroke-dashoffset:0;stroke-opacity:1"
     d="M 1394.2561,1974.8463 L 1301.2221,1974.8463 C 1304.221,1980.7772 1308.2195,1986.0884 1313.1461,1990.4635 C 1314.629,1990.798 1316.0216,1991.1524 1317.6398,1991.4422 C 1320.4318,1991.9423 1323.3991,1992.3805 1326.5383,1992.7326 C 1329.6773,1993.0847 1333.0002,1993.3482 1336.4157,1993.5333 C 1339.8313,1993.7186 1343.339,1993.8449 1346.9606,1993.8449 C 1350.5818,1993.8449 1354.1342,1993.719 1357.5496,1993.5333 C 1360.9653,1993.348 1364.2437,1993.0847 1367.3825,1992.7326 C 1370.5218,1992.3803 1373.5332,1991.9423 1376.3257,1991.4422 C 1378.6635,1991.0233 1380.7722,1990.5291 1382.8214,1990.0184 C 1387.5337,1985.7238 1391.3639,1980.5924 1394.2561,1974.8463 z"
     id="path7853" />
  <rect
     style="opacity:1;fill:#000000;fill-opacity:1;stroke:#000000;stroke-width:2.84753084;stroke-linejoin:bevel;stroke-miterlimit:4;stroke-dasharray:none;stroke-dashoffset:0;stroke-opacity:1;display:inline"
     id="rect7698"
     width="109.33468"
     height="109.33468"
     x="-1567.761"
     y="1273.002"
     transform="scale(-1,1)" />
  <path
     style="fill:#4b43f1;fill-opacity:1;stroke:#000000;stroke-width:2.84753084;stroke-linejoin:bevel;stroke-miterlimit:4;stroke-dasharray:none;stroke-dashoffset:0;stroke-opacity:1;display:inline"
     d="M 1458.4262,1272.9752 L 1412.6129,1245.3824 L 1412.6129,1353.8897 L 1458.4262,1382.3099 L 1458.4262,1272.9752 z"
     id="path7700"
     sodipodi:nodetypes="ccccc" />
  <path
     style="fill:#4b43f1;fill-opacity:1;stroke:#000000;stroke-width:2.84753084;stroke-linejoin:bevel;stroke-miterlimit:4;stroke-dasharray:none;stroke-dashoffset:0;stroke-opacity:1;display:inline"
     d="M 1521.8486,1245.3212 L 1412.5139,1245.3212 L 1458.4796,1273.0286 L 1567.8141,1273.0286 L 1521.8486,1245.3212 z"
     id="path7702"
     sodipodi:nodetypes="ccccc" />
  <g
     style="fill:#f1cd43;fill-opacity:1"
     transform="matrix(0.1771807,0,0,0.1752865,1513.571,1327.8258)"
     id="g7704">
    <path
       open="true"
       end="12.156224"
       start="5.8970142"
       d="M 264.33964,-111.81925 C 323.62695,36.157731 254.04363,204.94724 108.58457,265.99862 C -36.874502,327.05 -203.61437,257.44894 -264.64541,110.20382 C -325.67642,-37.041297 -258.09193,-206.66515 -113.36448,-269.48168 C 31.362964,-332.29818 198.913,-264.7305 261.67898,-118.23841"
       ry="203.77359"
       rx="221.56334"
       cy="15.363881"
       cx="38.00539"
       id="path7706"
       style="opacity:0.9;fill:#000000;fill-opacity:1;fill-rule:evenodd;stroke:#000000;stroke-width:20.85027122;stroke-linecap:round;stroke-linejoin:round;stroke-miterlimit:4;stroke-dasharray:none;stroke-dashoffset:0;stroke-opacity:1"
       type="arc" />
    <circle
       r="50"
       id="circle7708"
       cx="0"
       cy="0"
       sodipodi:cx="0"
       sodipodi:cy="0"
       sodipodi:rx="50"
       sodipodi:ry="50" />
    <path
       d="M 75,0 C 75.000034,-26.794953 60.70511,-51.554523 37.5,-64.952 L 125,-216.506 C 202.35016,-171.84786 249.99987,-89.316272 250,-1.4196219e-14 L 75,0 z"
       id="path7710" />
    <path
       id="use7712"
       d="M -37.5,64.951905 C -14.294907,78.349411 14.294971,78.349429 37.500082,64.951952 L 124.9997,216.50617 C 47.649532,261.16431 -47.649775,261.16437 -125,216.50635 L -37.5,64.951905 z" />
    <path
       id="use7714"
       d="M -37.5,-64.951905 C -60.705127,-51.554458 -75.000081,-26.794906 -75.000082,4.75e-05 L -249.9997,-0.000175 C -249.99969,-89.316448 -202.3501,-171.8481 -125,-216.50635 L -37.5,-64.951905 z" />
  </g>
  <rect
     style="opacity:1;fill:#f1cd43;fill-opacity:1;stroke:#fffa05;stroke-width:2.84753084;stroke-linejoin:bevel;stroke-miterlimit:4;stroke-dasharray:none;stroke-dashoffset:0;stroke-opacity:1;display:inline"
     id="rect7716"
     width="109.33468"
     height="109.33468"
     x="-1891.1884"
     y="1470.2916"
     transform="scale(-1,1)" />
  <path
     style="fill:#f1cd43;fill-opacity:1;stroke:#fffa05;stroke-width:2.84753084;stroke-linejoin:bevel;stroke-miterlimit:4;stroke-dasharray:none;stroke-dashoffset:0;stroke-opacity:1;display:inline"
     d="M 1781.8536,1470.2648 L 1736.0401,1442.6721 L 1736.0401,1551.1793 L 1781.8536,1579.5995 L 1781.8536,1470.2648 z"
     id="path7718"
     sodipodi:nodetypes="ccccc" />
  <path
     style="fill:#f1cd43;fill-opacity:1;stroke:#fffa05;stroke-width:2.84753084;stroke-linejoin:bevel;stroke-miterlimit:4;stroke-dasharray:none;stroke-dashoffset:0;stroke-opacity:1;display:inline"
     d="M 1845.2759,1442.6109 L 1735.9411,1442.6109 L 1781.9068,1470.3183 L 1891.2414,1470.3183 L 1845.2759,1442.6109 z"
     id="path7720"
     sodipodi:nodetypes="ccccc" />
  <path
     style="fill:none;fill-rule:evenodd;stroke:#ff0e0e;stroke-width:7.11882734;stroke-linecap:butt;stroke-linejoin:miter;stroke-miterlimit:4;stroke-dasharray:14.23765503, 7.11882752;stroke-dashoffset:0;stroke-opacity:1"
     d="M 1516.0803,1332.5431 L 1734.25,1461.0227"
     id="path7734"
     sodipodi:nodetypes="cc" />
  <path
     style="fill:#1e1e25;fill-opacity:1;stroke:#000000;stroke-width:1.42376542;stroke-linecap:round;stroke-linejoin:bevel;stroke-miterlimit:4;stroke-dashoffset:0;stroke-opacity:1"
     d="M 1748.5961,1476.1241 L 1758.6637,1481.6612 L 1758.4118,1556.9161 L 1748.5961,1550.3722 L 1748.5961,1476.1241 z"
     id="path7736"
     sodipodi:nodetypes="ccccc" />
  <path
     style="fill:#9291a4;fill-opacity:1;fill-rule:evenodd;stroke:#000000;stroke-width:1.41343939;stroke-linecap:butt;stroke-linejoin:miter;stroke-miterlimit:4;stroke-dasharray:none;stroke-opacity:1"
     d="M 1626.5432,1645.216 C 1624.9197,1648.2001 1623.7885,1652.3644 1627.2005,1655.8119 C 1630.2361,1658.879 1633.6237,1658.4229 1636.2697,1657.2105 C 1634.6996,1657.1018 1633.1045,1656.4534 1631.5929,1654.9133 C 1627.7448,1650.9924 1629.6801,1646.1021 1631.6173,1643.0676 C 1632.9096,1640.1149 1635.0651,1637.954 1635.0651,1637.954 L 1755.4893,1500.0495 L 1755.3737,1495.5497 L 1629.3696,1641.3347 C 1629.3694,1641.335 1627.806,1642.8954 1626.5432,1645.216 z"
     id="path7744"
     sodipodi:nodetypes="cscscccccc" />
  <path
     style="fill:#f4f4f6;fill-opacity:1;fill-rule:evenodd;stroke:#000000;stroke-width:1.42376542px;stroke-linecap:butt;stroke-linejoin:miter;stroke-opacity:1"
     d="M 1755.0633,1499.8442 L 1633.8697,1640.1892 C 1633.8697,1640.1892 1625.5546,1648.756 1631.6005,1654.9163 C 1637.6469,1661.0765 1645.3043,1653.0031 1645.3043,1653.0031 L 1755.0232,1532.072 L 1755.0232,1510.0036 L 1755.0633,1499.8442 z"
     id="path7746"
     sodipodi:nodetypes="ccscccc" />
  <path
     sodipodi:type="arc"
     style="opacity:1;fill:#1b1a20;fill-opacity:1;stroke:#000000;stroke-width:1;stroke-linecap:round;stroke-linejoin:bevel;stroke-miterlimit:4;stroke-dasharray:none;stroke-dashoffset:0;stroke-opacity:1"
     id="path7748"
     sodipodi:cx="3141.8906"
     sodipodi:cy="-113.65304"
     sodipodi:rx="3.1204045"
     sodipodi:ry="3.1204045"
     d="M 3145.011,-113.65304 A 3.1204045,3.1204045 0 1 1 3138.7702,-113.65304 A 3.1204045,3.1204045 0 1 1 3145.011,-113.65304 z"
     transform="matrix(0.6817156,-1.2499487,1.2499487,0.6817156,-360.24863,5651.9416)" />
  <path
     style="opacity:1;fill:#ffffff;fill-opacity:0.63372091;stroke:#000000;stroke-width:0.69986075;stroke-linecap:round;stroke-linejoin:bevel;stroke-miterlimit:4;stroke-dasharray:none;stroke-dashoffset:0;stroke-opacity:1"
     d="M 1325.6041,1940.3646 C 1325.6041,1940.3646 1321.3248,1945.4003 1316.7943,1949.9305 C 1314.5293,1952.1957 1312.2306,1954.3487 1310.3429,1955.6702 C 1309.3991,1956.3306 1308.5567,1956.795 1307.8958,1956.9605 C 1307.2352,1957.1257 1306.724,1957.0189 1306.472,1956.5154 C 1305.9687,1955.5087 1304.5335,1954.0268 1302.6458,1952.4221 C 1300.7581,1950.8177 1298.4149,1949.0751 1296.1498,1947.4389 C 1295.9876,1947.3218 1295.9998,1947.3322 1295.8384,1947.2164 C 1295.7204,1948.649 1295.3935,1950.0251 1295.3935,1951.4879 C 1295.3933,1959.4231 1297.2994,1966.8603 1300.4656,1973.6005 C 1300.6743,1974.0449 1301.0011,1974.4095 1301.2221,1974.8463 L 1394.2561,1974.8463 C 1394.3738,1974.6125 1394.542,1974.4152 1394.6566,1974.1791 C 1395.8196,1971.78 1396.5988,1969.1867 1397.415,1966.6154 L 1391.0527,1960.5199 C 1391.0527,1960.5199 1360.8647,1962.522 1356.8377,1962.522 C 1355.8309,1962.522 1354.8842,1962.1147 1354.0348,1961.4541 C 1353.1853,1960.7936 1352.4394,1959.8882 1351.8101,1959.007 C 1350.5517,1957.2452 1349.7636,1955.4921 1349.7634,1955.4921 L 1326.6272,1974.624 L 1325.6041,1940.3646 z"
     id="path7843" />
  <path
     style="fill:url(#linearGradient7788);fill-opacity:1;fill-rule:evenodd;stroke:#000000;stroke-width:0.93843788px;stroke-linecap:butt;stroke-linejoin:miter;stroke-opacity:1"
     d="M 1625.9068,1942.4353 C 1612.6426,1940.47 1359.8538,1943.3257 1359.8538,1943.3257 L 1359.2108,1969.2567 L 1622.4891,1984.099 L 1625.9068,1942.4353 z"
     id="path7770"
     sodipodi:nodetypes="ccccc" />
  <g
     id="g7905"
     transform="matrix(1.4237655,0,0,1.4237655,-3004.7344,415.60079)">
    <path
       id="path7632"
       d="M 3098.7845,1055.9014 L 3098.7845,1068.6201 L 3075.2533,1068.7451 L 3073.3157,1100.8389 L 3072.597,1100.8389 L 3072.597,1112.4639 L 3072.5345,1113.4951 L 3072.597,1113.5264 L 3072.597,1113.6514 L 3072.7845,1113.6514 L 3087.5345,1123.4014 L 3104.8157,1113.8389 L 3107.5657,1068.5889 L 3107.472,1068.5889 L 3107.472,1055.9014 L 3098.7845,1055.9014 z"
       style="fill:#2a2a31;fill-opacity:1;fill-rule:evenodd;stroke:#000000;stroke-width:1;stroke-linecap:butt;stroke-linejoin:miter;stroke-miterlimit:4;stroke-dasharray:none;stroke-opacity:1" />
    <path
       sodipodi:nodetypes="cccccc"
       id="path7772"
       d="M 3075.2351,1055.9349 L 3072.4931,1100.6823 L 3087.4892,1110.5825 L 3104.7971,1101.0287 L 3107.5384,1055.7904 L 3075.2351,1055.9349 z"
       style="fill:url(#linearGradient7790);fill-opacity:1;fill-rule:evenodd;stroke:#000000;stroke-width:0.47939259px;stroke-linecap:butt;stroke-linejoin:miter;stroke-opacity:1" />
    <path
       id="path7774"
       d="M 3087.4434,1110.4784 L 3087.5318,1123.3389"
       style="fill:none;fill-rule:evenodd;stroke:#000000;stroke-width:1;stroke-linecap:butt;stroke-linejoin:miter;stroke-miterlimit:4;stroke-dasharray:none;stroke-opacity:1" />
    <path
       id="path7776"
       d="M 3104.8117,1101.0651 L 3104.8559,1113.793"
       style="fill:none;fill-rule:evenodd;stroke:#000000;stroke-width:1;stroke-linecap:butt;stroke-linejoin:miter;stroke-miterlimit:4;stroke-dasharray:none;stroke-opacity:1" />
  </g>
  <path
     style="fill:none;fill-rule:evenodd;stroke:#000000;stroke-width:1.42376542px;stroke-linecap:butt;stroke-linejoin:miter;stroke-opacity:1"
     d="M 1639.0753,1647.13 C 1627.3263,1658.6919 1633.4462,1758.6332 1639.0753,1776.6927 C 1644.8366,1790.7691 1656.1489,1801.302 1664.7031,1813.7105 C 1686.7701,1843.1491 1700.2973,1853.5119 1700.2973,1890.594 C 1703.3952,1935.6535 1672.7975,1932.5729 1643.0283,1937.1464 C 1636.5135,1938.1471 1513.9726,1936.0362 1507.5779,1937.6348 C 1496.7095,1940.3519 1514.1623,1975.9823 1502.9287,1977.8544"
     id="path7778"
     sodipodi:nodetypes="ccccssc" />
  <path
     style="fill:none;fill-rule:evenodd;stroke:#000000;stroke-width:1.42376542px;stroke-linecap:butt;stroke-linejoin:miter;stroke-opacity:1"
     d="M 1503.3507,1978.4659 C 1502.8166,1976.5084 1501.9268,1939.8463 1501.9268,1939.8463 L 1500.681,1977.0422 L 1499.7912,1939.8463"
     id="path7782"
     sodipodi:nodetypes="cccc" />
  <rect
     style="opacity:1;fill:#000000;fill-opacity:1;stroke:#000000;stroke-width:2.84753084;stroke-linejoin:bevel;stroke-miterlimit:4;stroke-dasharray:none;stroke-dashoffset:0;stroke-opacity:1;display:inline"
     id="rect7802"
     width="109.33468"
     height="109.33468"
     x="-1567.761"
     y="202.86502"
     transform="scale(-1,1)" />
  <path
     style="fill:#4b43f1;fill-opacity:1;stroke:#000000;stroke-width:2.84753084;stroke-linejoin:bevel;stroke-miterlimit:4;stroke-dasharray:none;stroke-dashoffset:0;stroke-opacity:1;display:inline"
     d="M 1458.4262,202.83821 L 1412.6129,175.2455 L 1412.6129,283.75271 L 1458.4262,312.17289 L 1458.4262,202.83821 z"
     id="path7804"
     sodipodi:nodetypes="ccccc" />
  <path
     style="fill:#4b43f1;fill-opacity:1;stroke:#000000;stroke-width:2.84753084;stroke-linejoin:bevel;stroke-miterlimit:4;stroke-dasharray:none;stroke-dashoffset:0;stroke-opacity:1;display:inline"
     d="M 1521.8486,175.18426 L 1412.5139,175.18426 L 1458.4796,202.89165 L 1567.8141,202.89165 L 1521.8486,175.18426 z"
     id="path7806"
     sodipodi:nodetypes="ccccc" />
  <g
     style="fill:#f1cd43;fill-opacity:1"
     transform="matrix(0.1771807,0,0,0.1752865,1513.571,257.68882)"
     id="g7808">
    <path
       open="true"
       end="12.156224"
       start="5.8970142"
       d="M 264.33964,-111.81925 C 323.62695,36.157731 254.04363,204.94724 108.58457,265.99862 C -36.874502,327.05 -203.61437,257.44894 -264.64541,110.20382 C -325.67642,-37.041297 -258.09193,-206.66515 -113.36448,-269.48168 C 31.362964,-332.29818 198.913,-264.7305 261.67898,-118.23841"
       ry="203.77359"
       rx="221.56334"
       cy="15.363881"
       cx="38.00539"
       id="path7810"
       style="opacity:0.9;fill:#000000;fill-opacity:1;fill-rule:evenodd;stroke:#000000;stroke-width:20.85027122;stroke-linecap:round;stroke-linejoin:round;stroke-miterlimit:4;stroke-dasharray:none;stroke-dashoffset:0;stroke-opacity:1"
       type="arc" />
    <circle
       r="50"
       id="circle7812"
       cx="0"
       cy="0"
       sodipodi:cx="0"
       sodipodi:cy="0"
       sodipodi:rx="50"
       sodipodi:ry="50" />
    <path
       d="M 75,0 C 75.000034,-26.794953 60.70511,-51.554523 37.5,-64.952 L 125,-216.506 C 202.35016,-171.84786 249.99987,-89.316272 250,-1.4196219e-14 L 75,0 z"
       id="path7814" />
    <path
       id="use7816"
       d="M -37.5,64.951905 C -14.294907,78.349411 14.294971,78.349429 37.500082,64.951952 L 124.9997,216.50617 C 47.649532,261.16431 -47.649775,261.16437 -125,216.50635 L -37.5,64.951905 z" />
    <path
       id="use7818"
       d="M -37.5,-64.951905 C -60.705127,-51.554458 -75.000081,-26.794906 -75.000082,4.75e-05 L -249.9997,-0.000175 C -249.99969,-89.316448 -202.3501,-171.8481 -125,-216.50635 L -37.5,-64.951905 z" />
  </g>
  <path
     style="opacity:1;fill:#ffffff;fill-opacity:0.63372091;stroke:#000000;stroke-width:0.69986075;stroke-linecap:round;stroke-linejoin:bevel;stroke-miterlimit:4;stroke-dasharray:none;stroke-dashoffset:0;stroke-opacity:1"
     d="M 1223.4932,1903.3913 C 1214.1365,1913.7974 1209.1314,1927.7137 1210.101,1941.9664 L 1160.2693,1959.1406 L 1168.9897,1984.4123 L 1218.7324,1967.1936 C 1226.5912,1978.9816 1238.8801,1986.8942 1252.5026,1989.5291 C 1252.4891,1989.1961 1252.4711,1988.9275 1252.458,1988.5947 C 1252.3659,1986.2942 1252.3233,1984.5871 1252.2355,1982.3211 L 1245.0721,1973.6005 L 1251.8796,1973.6005 C 1251.696,1968.6774 1251.4856,1963.0852 1251.3457,1959.1406 L 1244.5828,1953.49 L 1250.9452,1946.905 C 1250.9413,1946.7876 1250.9008,1945.4811 1250.9008,1945.4811 L 1247.3857,1938.9409 L 1243.5595,1939.3858 L 1244.0934,1932.8452 L 1242.0467,1928.9745 L 1237.0191,1932.3114 L 1230.4785,1929.8198 L 1233.0147,1919.7646 L 1234.7943,1915.4042 L 1231.9024,1910.0207 L 1222.9149,1912.2007 L 1223.4932,1903.3913 z"
     id="path7832" />
  <rect
     style="opacity:1;fill:#ffffff;fill-opacity:0.63372091;stroke:#000000;stroke-width:0.98900503;stroke-linecap:round;stroke-linejoin:bevel;stroke-miterlimit:4;stroke-dasharray:none;stroke-dashoffset:0;stroke-opacity:1"
     id="rect7836"
     width="41.95993"
     height="8.3919859"
     x="-2265.3149"
     y="456.15875"
     transform="matrix(-0.3264898,-0.9452007,0.9452007,-0.3264898,0,0)" />
  <path
     sodipodi:type="arc"
     style="opacity:1;fill:#22b716;fill-opacity:0.63529412;stroke:#000000;stroke-width:1;stroke-linecap:round;stroke-linejoin:bevel;stroke-miterlimit:4;stroke-dasharray:none;stroke-dashoffset:0;stroke-opacity:1"
     id="path7867"
     sodipodi:cx="2960.3025"
     sodipodi:cy="1059.2852"
     sodipodi:rx="11.667262"
     sodipodi:ry="3.1819806"
     d="M 2971.9698,1059.2852 A 11.667262,3.1819806 0 1 1 2948.6352,1059.2852 A 11.667262,3.1819806 0 1 1 2971.9698,1059.2852 z"
     transform="matrix(1.4237655,0,0,1.4237655,-2934.9698,415.60079)" />
  <path
     sodipodi:type="arc"
     style="opacity:1;fill:#22b716;fill-opacity:0.63529412;stroke:#000000;stroke-width:1;stroke-linecap:round;stroke-linejoin:bevel;stroke-miterlimit:4;stroke-dasharray:none;stroke-dashoffset:0;stroke-opacity:1"
     id="path7873"
     sodipodi:cx="3039.4985"
     sodipodi:cy="1140.6024"
     sodipodi:rx="10.960155"
     sodipodi:ry="8.1317282"
     d="M 3050.4587,1140.6024 A 10.960155,8.1317282 0 1 1 3028.5384,1140.6024 A 10.960155,8.1317282 0 1 1 3050.4587,1140.6024 z"
     transform="matrix(2.1291683,0,0,1.2364559,-5086.8716,627.82281)" />
  <path
     sodipodi:type="arc"
     style="opacity:1;fill:#22b716;fill-opacity:0.63529412;stroke:#000000;stroke-width:1;stroke-linecap:round;stroke-linejoin:bevel;stroke-miterlimit:4;stroke-dasharray:none;stroke-dashoffset:0;stroke-opacity:1"
     id="path7875"
     sodipodi:cx="3113.3911"
     sodipodi:cy="1126.1068"
     sodipodi:rx="9.1923885"
     sodipodi:ry="2.1213202"
     d="M 3122.5835,1126.1068 A 9.1923885,2.1213202 0 1 1 3104.1987,1126.1068 A 9.1923885,2.1213202 0 1 1 3122.5835,1126.1068 z"
     transform="matrix(1.4237655,0,0,1.4237655,-3115.788,433.39788)" />
  <path
     sodipodi:type="arc"
     style="opacity:1;fill:#22b716;fill-opacity:0.63529412;stroke:#000000;stroke-width:1;stroke-linecap:round;stroke-linejoin:bevel;stroke-miterlimit:4;stroke-dasharray:none;stroke-dashoffset:0;stroke-opacity:1"
     id="path7877"
     sodipodi:cx="3131.4224"
     sodipodi:cy="1111.6111"
     sodipodi:rx="8.8388348"
     sodipodi:ry="5.3033009"
     d="M 3140.2612,1111.6111 A 8.8388348,5.3033009 0 1 1 3122.5835,1111.6111 A 8.8388348,5.3033009 0 1 1 3140.2612,1111.6111 z"
     transform="matrix(1.4237655,0,0,1.4237655,-2952.7669,426.27904)" />
  <path
     sodipodi:type="arc"
     style="opacity:1;fill:#22b716;fill-opacity:0.63529412;stroke:#000000;stroke-width:1;stroke-linecap:round;stroke-linejoin:bevel;stroke-miterlimit:4;stroke-dasharray:none;stroke-dashoffset:0;stroke-opacity:1"
     id="path7887"
     sodipodi:cx="2862.3682"
     sodipodi:cy="1116.9144"
     sodipodi:rx="4.2426405"
     sodipodi:ry="2.1213202"
     d="M 2866.6108,1116.9144 A 4.2426405,2.1213202 0 1 1 2858.1255,1116.9144 A 4.2426405,2.1213202 0 1 1 2866.6108,1116.9144 z"
     transform="matrix(1.4237655,0,0,1.4237655,-2934.9698,415.60079)" />
  <path
     sodipodi:type="arc"
     style="opacity:1;fill:#22b716;fill-opacity:0.63529412;stroke:#000000;stroke-width:1;stroke-linecap:round;stroke-linejoin:bevel;stroke-miterlimit:4;stroke-dasharray:none;stroke-dashoffset:0;stroke-opacity:1"
     id="path7895"
     sodipodi:cx="3113.3911"
     sodipodi:cy="1126.1068"
     sodipodi:rx="9.1923885"
     sodipodi:ry="2.1213202"
     d="M 3122.5835,1126.1068 A 9.1923885,2.1213202 0 1 1 3104.1987,1126.1068 A 9.1923885,2.1213202 0 1 1 3122.5835,1126.1068 z"
     transform="matrix(1.4237655,0,0,1.4237655,-2993.1892,420.4319)" />
  <path
     sodipodi:type="arc"
     style="opacity:1;fill:#22b716;fill-opacity:0.63529412;stroke:#000000;stroke-width:1;stroke-linecap:round;stroke-linejoin:bevel;stroke-miterlimit:4;stroke-dasharray:none;stroke-dashoffset:0;stroke-opacity:1"
     id="path7897"
     sodipodi:cx="3113.3911"
     sodipodi:cy="1126.1068"
     sodipodi:rx="9.1923885"
     sodipodi:ry="2.1213202"
     d="M 3122.5835,1126.1068 A 9.1923885,2.1213202 0 1 1 3104.1987,1126.1068 A 9.1923885,2.1213202 0 1 1 3122.5835,1126.1068 z"
     transform="matrix(1.4237655,0,0,1.4237655,-3072.9201,327.17526)" />
  <path
     sodipodi:type="arc"
     style="opacity:1;fill:#22b716;fill-opacity:0.63529412;stroke:#000000;stroke-width:1;stroke-linecap:round;stroke-linejoin:bevel;stroke-miterlimit:4;stroke-dasharray:none;stroke-dashoffset:0;stroke-opacity:1"
     id="path7899"
     sodipodi:cx="3113.3911"
     sodipodi:cy="1126.1068"
     sodipodi:rx="9.1923885"
     sodipodi:ry="2.1213202"
     d="M 3122.5835,1126.1068 A 9.1923885,2.1213202 0 1 1 3104.1987,1126.1068 A 9.1923885,2.1213202 0 1 1 3122.5835,1126.1068 z"
     transform="matrix(1.4237655,0,0,1.4237655,-3124.1756,305.1069)" />
  <path
     sodipodi:type="arc"
     style="opacity:1;fill:#22b716;fill-opacity:0.63529412;stroke:#000000;stroke-width:1;stroke-linecap:round;stroke-linejoin:bevel;stroke-miterlimit:4;stroke-dasharray:none;stroke-dashoffset:0;stroke-opacity:1"
     id="path7901"
     sodipodi:cx="3113.3911"
     sodipodi:cy="1126.1068"
     sodipodi:rx="9.1923885"
     sodipodi:ry="2.1213202"
     d="M 3122.5835,1126.1068 A 9.1923885,2.1213202 0 1 1 3104.1987,1126.1068 A 9.1923885,2.1213202 0 1 1 3122.5835,1126.1068 z"
     transform="matrix(1.4237655,0,0,1.4237655,-3302.1462,381.99024)" />
  <path
     sodipodi:type="arc"
     style="opacity:1;fill:#22b716;fill-opacity:0.63529412;stroke:#000000;stroke-width:1;stroke-linecap:round;stroke-linejoin:bevel;stroke-miterlimit:4;stroke-dasharray:none;stroke-dashoffset:0;stroke-opacity:1"
     id="path7903"
     sodipodi:cx="3113.3911"
     sodipodi:cy="1126.1068"
     sodipodi:rx="9.1923885"
     sodipodi:ry="2.1213202"
     d="M 3122.5835,1126.1068 A 9.1923885,2.1213202 0 1 1 3104.1987,1126.1068 A 9.1923885,2.1213202 0 1 1 3122.5835,1126.1068 z"
     transform="matrix(1.4237655,0,0,1.4237655,-3340.588,334.29409)" />
  <path
     sodipodi:type="arc"
     style="opacity:1;fill:url(#radialGradient7944);fill-opacity:1;stroke:none;stroke-width:1;stroke-linecap:round;stroke-linejoin:bevel;stroke-miterlimit:4;stroke-dasharray:none;stroke-dashoffset:0;stroke-opacity:1"
     id="path7920"
     sodipodi:cx="3382.75"
     sodipodi:cy="-79.25"
     sodipodi:rx="18.75"
     sodipodi:ry="18.75"
     d="M 3401.5,-79.25 A 18.75,18.75 0 1 1 3364,-79.25 A 18.75,18.75 0 1 1 3401.5,-79.25 z"
     transform="matrix(1.4237655,0,0,1.4237655,-2982.809,1636.3576)" />
  <g
     id="g7930"
     transform="matrix(5.5970541,0,0,5.5970541,1094.3609,333.79137)">
    <path
       transform="matrix(0.5697815,0,0,0.5697815,-88.533286,58.989955)"
       d="M 8.5588245,-121.63235 A 39.941177,39.941177 0 1 1 -71.32353,-121.63235 A 39.941177,39.941177 0 1 1 8.5588245,-121.63235 z"
       sodipodi:ry="39.941177"
       sodipodi:rx="39.941177"
       sodipodi:cy="-121.63235"
       sodipodi:cx="-31.382353"
       id="path7932"
       style="fill:#ffffff;fill-opacity:1;stroke:#000000;stroke-width:2.6557219;stroke-linecap:round;stroke-linejoin:bevel;stroke-miterlimit:4;stroke-dasharray:none;stroke-dashoffset:0;stroke-opacity:1"
       sodipodi:type="arc" />
    <text
       sodipodi:linespacing="125%"
       id="text7934"
       y="3.6141348"
       x="-119.62931"
       style="font-size:40.56672287px;font-style:normal;font-variant:normal;font-weight:normal;font-stretch:normal;text-align:start;line-height:125%;writing-mode:lr-tb;text-anchor:start;fill:#000000;fill-opacity:1;stroke:none;stroke-width:1px;stroke-linecap:butt;stroke-linejoin:miter;stroke-opacity:1;font-family:Verdana;-inkscape-font-specification:Verdana"
       xml:space="preserve"><tspan
         y="3.6141348"
         x="-119.62931"
         id="tspan7936"
         sodipodi:role="line">1</tspan></text>
  </g>
  <path
     style="fill:none;fill-rule:evenodd;stroke:#000000;stroke-width:1.76834655px;stroke-linecap:butt;stroke-linejoin:miter;stroke-opacity:1"
     d="M 1420.8111,1628.0028 L 1998.2799,2142.9991"
     id="path7954" />
  <g
     id="g8053"
     transform="matrix(3.1651341,0,0,3.1651341,3039.9947,1731.9219)">
    <path
       transform="matrix(1.0075712,0,0,1.0075712,-771.26571,3.9156503)"
       d="M 8.5588245,-121.63235 A 39.941177,39.941177 0 1 1 -71.32353,-121.63235 A 39.941177,39.941177 0 1 1 8.5588245,-121.63235 z"
       sodipodi:ry="39.941177"
       sodipodi:rx="39.941177"
       sodipodi:cy="-121.63235"
       sodipodi:cx="-31.382353"
       id="path8055"
       style="fill:#ffffff;fill-opacity:1;stroke:#000000;stroke-width:2.6557219;stroke-linecap:round;stroke-linejoin:bevel;stroke-miterlimit:4;stroke-dasharray:none;stroke-dashoffset:0;stroke-opacity:1"
       sodipodi:type="arc" />
    <text
       sodipodi:linespacing="125%"
       id="text8057"
       y="-94.007996"
       x="-826.25421"
       style="font-size:71.73602295px;font-style:normal;font-variant:normal;font-weight:normal;font-stretch:normal;text-align:start;line-height:125%;writing-mode:lr-tb;text-anchor:start;fill:#000000;fill-opacity:1;stroke:none;stroke-width:1px;stroke-linecap:butt;stroke-linejoin:miter;stroke-opacity:1;font-family:Verdana;-inkscape-font-specification:Verdana"
       xml:space="preserve"><tspan
         y="-94.007996"
         x="-826.25421"
         id="tspan8059"
         sodipodi:role="line">2</tspan></text>
  </g>
</svg>
